# xmcd
#
# Track frame offsets:
#	150
#	16445
#	32258
#	48099
#	65148
#	77789
#	93886
#	108361
#	124927
#	144247
#	160615
#	175856
#	200695
#	219398
#
# Disc length: 3107 seconds
#
# Revision: 0
# Processed by: cddbd v1.5.2PL0 Copyright (c) Steve Scherf et al.
# Submitted via: dBpowerAMP V4.0
#
DISCID=b30c210e
DTITLE=Ayo - Gravity At Last
DYEAR=1900
DGENRE=
TTITLE0=01 I Am Not Afraid
TTITLE1=02 Maybe (Ayo Blues)
TTITLE2=03 Slow Slow (Run Run)
TTITLE3=04 Love And Hate
TTITLE4=05 Get Out Of My Way
TTITLE5=06 Better Days
TTITLE6=07 Change
TTITLE7=08 Piece Of Joy
TTITLE8=09 Lonely
TTITLE9=10 Sometimes
TTITLE10=11 What's This All About
TTITLE11=12 Mother
TTITLE12=13 Thank You
TTITLE13=14 Sometimes (Home Acoustic)
EXTD=
EXTT0=
EXTT1=
EXTT2=
EXTT3=
EXTT4=
EXTT5=
EXTT6=
EXTT7=
EXTT8=
EXTT9=
EXTT10=
EXTT11=
EXTT12=
EXTT13=
PLAYORDER=
